<?xml version="1.0" encoding="UTF-8"?>
<svg width="438px" height="887px" viewBox="0 0 438 887" version="1.1" xmlns="http://www.w3.org/2000/svg" xmlns:xlink="http://www.w3.org/1999/xlink">
    <title>iPhone 13- 13 Pro</title>
    <g id="iPhone-13--13-Pro" stroke="none" stroke-width="1" fill="none" fill-rule="evenodd">
        <path d="M0,143 L0.214723324,143 C0.71819771,143 0.988189833,143.069619 1.23263428,143.20035 C1.47707872,143.33108 1.66892015,143.522921 1.79965047,143.767366 C1.93038079,144.01181 2,144.281802 2,144.785277 L2,174.214723 C2,174.718198 1.93038079,174.98819 1.79965047,175.232634 C1.66892015,175.477079 1.47707872,175.66892 1.23263428,175.79965 C0.988189833,175.930381 0.71819771,176 0.214723324,176 L0,176 L0,176 L0,143 Z" id="Button" fill="#181818" transform="translate(1.000000, 159.500000) scale(-1, 1) translate(-1.000000, -159.500000) "></path>
        <path d="M0,291 L0.214723324,291 C0.71819771,291 0.988189833,291.069619 1.23263428,291.20035 C1.47707872,291.33108 1.66892015,291.522921 1.79965047,291.767366 C1.93038079,292.01181 2,292.281802 2,292.785277 L2,353.214723 C2,353.718198 1.93038079,353.98819 1.79965047,354.232634 C1.66892015,354.477079 1.47707872,354.66892 1.23263428,354.79965 C0.988189833,354.930381 0.71819771,355 0.214723324,355 L0,355 L0,355 L0,291 Z" id="Button-Copy-4" fill="#181818" transform="translate(1.000000, 323.000000) scale(-1, 1) translate(-1.000000, -323.000000) "></path>
        <path d="M0,207 L0.214723324,207 C0.71819771,207 0.988189833,207.069619 1.23263428,207.20035 C1.47707872,207.33108 1.66892015,207.522921 1.79965047,207.767366 C1.93038079,208.01181 2,208.281802 2,208.785277 L2,269.214723 C2,269.718198 1.93038079,269.98819 1.79965047,270.232634 C1.66892015,270.477079 1.47707872,270.66892 1.23263428,270.79965 C0.988189833,270.930381 0.71819771,271 0.214723324,271 L0,271 L0,271 L0,207 Z" id="Button-Copy-3" fill="#181818" transform="translate(1.000000, 239.000000) scale(-1, 1) translate(-1.000000, -239.000000) "></path>
        <path d="M437.785277,230 L438,230 L438,230 L438,332 L437.785277,332 C437.281802,332 437.01181,331.930381 436.767366,331.79965 C436.522921,331.66892 436.33108,331.477079 436.20035,331.232634 C436.069619,330.98819 436,330.718198 436,330.214723 L436,231.785277 C436,231.281802 436.069619,231.01181 436.20035,230.767366 C436.33108,230.522921 436.522921,230.33108 436.767366,230.20035 C437.01181,230.069619 437.281802,230 437.785277,230 Z" id="Button-Copy" fill="#181818" transform="translate(437.000000, 281.000000) scale(-1, 1) translate(-437.000000, -281.000000) "></path>
        <path d="M366,0 C404.659932,-7.10171439e-15 436,31.3400675 436,70 L436,817 C436,855.659932 404.659932,887 366,887 L72,887 C33.3400675,887 2,855.659932 2,817 L2,70 C2,31.3400675 33.3400675,7.10171439e-15 72,0 L366,0 Z M366,22 L72,22 C45.490332,22 24,43.490332 24,70 L24,70 L24,818 C24,844.509668 45.490332,866 72,866 L72,866 L366,866 C392.509668,866 414,844.509668 414,818 L414,818 L414,70 C414,43.490332 392.509668,22 366,22 L366,22 Z" id="outter" fill="#36353A"></path>
        <path d="M364,8 C399.346224,8 428,36.653776 428,72 L428,815 C428,850.346224 399.346224,879 364,879 L74,879 C38.653776,879 10,850.346224 10,815 L10,72 C10,36.653776 38.653776,8 74,8 L364,8 Z M300.004138,27.7750617 L300,28 L300,31 C300,43.7025492 289.702549,54 277,54 L161,54 C148.297451,54 138,43.7025492 138,31 L138,28 C138,24.6862915 135.313708,22 132,22 L72,22 C45.490332,22 24,43.490332 24,70 L24,70 L24,818 C24,844.509668 45.490332,866 72,866 L72,866 L366,866 C392.509668,866 414,844.509668 414,818 L414,818 L414,70 C414,43.490332 392.509668,22 366,22 L366,22 L306,22 C302.761603,22 300.122428,24.5655749 300.004138,27.7750617 Z" id="inner" fill="#000000"></path>
        <path d="M187.5,10 L250.5,10 C251.880712,10 253,11.1192881 253,12.5 C253,13.8807119 251.880712,15 250.5,15 L187.5,15 C186.119288,15 185,13.8807119 185,12.5 C185,11.1192881 186.119288,10 187.5,10 Z" id="Speaker" fill="#181818"></path>
        <circle id="Camera" fill="#181818" cx="163" cy="33" r="7"></circle>
    </g>
</svg>