<svg width="50" height="50" xmlns="http://www.w3.org/2000/svg" xmlns:xlink="http://www.w3.org/1999/xlink"><defs><path d="M46.5 25c0-11.874-9.626-21.5-21.5-21.5C13.125 3.5 3.5 13.126 3.5 25S13.125 46.5 25 46.5c11.874 0 21.5-9.626 21.5-21.5zm3 0c0 13.53-10.97 24.5-24.5 24.5C11.468 49.5.5 38.531.5 25S11.468.5 25 .5C38.53.5 49.5 11.47 49.5 25z" id="a"/><path d="M41.723 40.648a7.771 7.771 0 0 0-2.474-1.934l-7.088-3.498a3.538 3.538 0 0 1-1.954-2.786l-.102-.948c-.09-.846.09-1.714.594-2.4a6.859 6.859 0 0 0 1.294-3.272l.132-1.148c1.022 0 1.898-.72 2.092-1.716l.374-1.928a2.114 2.114 0 0 0-1.342-2.378l-.408-.154.378-3.286c.48-4.148-2.788-7.788-6.992-7.788h-2.454c-4.206 0-7.472 3.64-6.994 7.788l.382 3.286-.41.154a2.107 2.107 0 0 0-1.34 2.378l.372 1.928a2.127 2.127 0 0 0 2.092 1.716l.134 1.148a6.816 6.816 0 0 0 1.292 3.272c.502.686.684 1.554.594 2.398l-.104.95a3.527 3.527 0 0 1-1.952 2.786l-7.088 3.498a7.801 7.801 0 0 0-2.476 1.934S12.697 48 25 48c12.302 0 16.722-7.352 16.722-7.352" id="c"/></defs><g fill="none" fill-rule="evenodd"><mask id="b" fill="#fff"><use xlink:href="#a"/></mask><use fill="#455065" fill-rule="nonzero" xlink:href="#a"/><g mask="url(#b)" fill="#687089"><path d="M0 0h50v50H0z"/></g><mask id="d" fill="#fff"><use xlink:href="#c"/></mask><use fill="#455065" xlink:href="#c"/><g mask="url(#d)" fill="#687089"><path d="M0 0h50v50H0z"/></g></g></svg>